<?xml version="1.0" encoding="UTF-8" standalone="no"?>
<svg
   viewBox="0 0 128 256"
   version="1.1"
   id="svg10"
   sodipodi:docname="catEmoji.svg"
   inkscape:version="1.3.2 (091e20e, 2023-11-25, custom)"
   width="128"
   height="256"
   xml:space="preserve"
   xmlns:inkscape="http://www.inkscape.org/namespaces/inkscape"
   xmlns:sodipodi="http://sodipodi.sourceforge.net/DTD/sodipodi-0.dtd"
   xmlns="http://www.w3.org/2000/svg"
   xmlns:svg="http://www.w3.org/2000/svg"><defs
     id="defs10" /><sodipodi:namedview
     id="namedview10"
     pagecolor="#ffffff"
     bordercolor="#000000"
     borderopacity="0.25"
     inkscape:showpageshadow="2"
     inkscape:pageopacity="0.0"
     inkscape:pagecheckerboard="0"
     inkscape:deskcolor="#d1d1d1"
     inkscape:zoom="1.4142136"
     inkscape:cx="26.162951"
     inkscape:cy="106.77312"
     inkscape:window-width="1920"
     inkscape:window-height="996"
     inkscape:window-x="-8"
     inkscape:window-y="-8"
     inkscape:window-maximized="1"
     inkscape:current-layer="svg10" /><path
     id="path1-7"
     style="stroke-width:0.999998"
     d="m -117.11309,-124.79541 c -2.00636,0.0907 -3.38032,0.61479 -3.95117,1.6289 -13.56436,24.089207 12.48437,90.7168 12.48437,90.7168 -6.78217,13.019959 -9.32318,32.85262934 -11.75781,54.136719 -1.05052,9.15789 -0.85092,17.53699 -0.10156,24.64648 -0.93519,0.23569 -1.57524,0.41682 -1.72852,0.4629 -1.99609,0.5973 -3.13052,2.69946 -2.5332,4.70312 0.60488,2.00365 2.70728,3.14564 4.71094,2.5332 0.0165,-0.005 0.44487,-0.11503 0.63281,-0.16601 1.26508,6.98454 2.93125,11.98552 3.99414,13.85937 1.01702,1.79287 3.64947,5.13399 7.48633,9.27735 -8.68328,4.1442 -13.53636,7.87079 -14.01758,8.24804 -1.64073,1.29292 -1.92183,3.66787 -0.62891,5.3086 0.74854,0.94512 1.85364,1.4375 2.97266,1.4375 0.81658,0 1.64058,-0.27347 2.34375,-0.80274 0.11708,-0.0943 5.3626,-4.12309 15.02148,-8.39648 5.654736,5.52018 12.700933,11.70225 20.726567,17.484371 27.121147,19.52995 67.798924,26.04883 81.36328426,26.04883 13.56434974,0 54.24213974,-6.51132 81.36327974,-26.04883 8.02563,-5.782121 15.07183,-11.964191 20.726559,-17.484371 9.65793,4.27315 14.90441,8.30218 15.02148,8.39648 0.70317,0.52927 1.52718,0.80274 2.34376,0.80274 1.11902,0 2.22412,-0.49238 2.97265,-1.4375 1.29293,-1.64073 1.01182,-4.01568 -0.62891,-5.3086 -0.4812,-0.37725 -5.33458,-4.10393 -14.01757,-8.24804 3.83686,-4.14336 6.4693,-7.48448 7.48633,-9.27735 1.06277,-1.87366 2.72838,-6.87404 3.99414,-13.85742 0.18766,0.0509 0.61635,0.15954 0.63281,0.16406 2.00366,0.61244 4.10606,-0.52955 4.71094,-2.5332 0.59732,-2.00366 -0.53712,-4.10582 -2.53321,-4.70312 -0.15328,-0.0461 -0.79333,-0.22721 -1.72851,-0.4629 0.75046,-7.1095 0.9538,-15.48857 -0.0937,-24.64648 -2.44976,-21.27652966 -4.98345,-41.11676 -11.76563,-54.136719 0,0 26.04678,-66.627593 12.48242,-90.7168 -4.56681,-8.1129 -60.487689,15.10851 -81.076169,41.148441 0,0 -19.55165,-6.503906 -39.89061974,-6.503906 -20.33897026,0 -39.89258126,6.503906 -39.89258126,6.503906 -18.014922,-22.784941 -63.08051,-43.411951 -77.125,-42.777341 z" /></svg>
